<svg width="180" height="180" viewBox="0 0 180 180" xmlns="http://www.w3.org/2000/svg">
  <rect x="0" y="0" width="180" height="180" rx="26" fill="#0f172a"/>
  <rect x="20" y="20" width="140" height="140" fill="#020617"/>
  <rect x="28" y="28" width="36" height="36" fill="#e5e7eb"/>
  <rect x="34" y="34" width="24" height="24" fill="#020617"/>
  <rect x="116" y="28" width="36" height="36" fill="#e5e7eb"/>
  <rect x="122" y="34" width="24" height="24" fill="#020617"/>
  <rect x="28" y="116" width="36" height="36" fill="#e5e7eb"/>
  <rect x="34" y="122" width="24" height="24" fill="#020617"/>
  <!-- simple pseudo QR pattern -->
  <rect x="76" y="52" width="12" height="12" fill="#e5e7eb"/>
  <rect x="92" y="52" width="8" height="8" fill="#e5e7eb"/>
  <rect x="80" y="72" width="8" height="8" fill="#e5e7eb"/>
  <rect x="100" y="72" width="10" height="10" fill="#e5e7eb"/>
  <rect x="84" y="92" width="10" height="10" fill="#e5e7eb"/>
  <rect x="104" y="96" width="8" height="8" fill="#e5e7eb"/>
  <rect x="72" y="100" width="6" height="6" fill="#e5e7eb"/>
  <rect x="94" y="112" width="12" height="12" fill="#e5e7eb"/>
  <rect x="116" y="104" width="6" height="6" fill="#e5e7eb"/>
  <rect x="60" y="60" width="6" height="6" fill="#e5e7eb"/>
  <text x="90" y="170" text-anchor="middle" font-size="13" fill="#e5e7eb" font-family="system-ui, -apple-system, sans-serif">
    Scan to pay
  </text>
</svg>
